<?xml version="1.0" encoding="UTF-8" standalone="no"?>
<!-- Created with Inkscape (http://www.inkscape.org/) -->
<svg
   xmlns:svg="http://www.w3.org/2000/svg"
   xmlns="http://www.w3.org/2000/svg"
   xmlns:xlink="http://www.w3.org/1999/xlink"
   version="1.0"
   width="900"
   height="1200"
   id="svg2848">
  <defs
     id="defs2850">
    <linearGradient
       id="linearGradient5710">
      <stop
         id="stop5712"
         style="stop-color:#0092de;stop-opacity:1"
         offset="0" />
      <stop
         id="stop5714"
         style="stop-color:#0092de;stop-opacity:0"
         offset="1" />
    </linearGradient>
    <marker
       refX="0"
       refY="0"
       orient="auto"
       id="Arrow1Lend"
       style="overflow:visible">
      <path
         d="M 0,0 L 5,-5 L -12.5,0 L 5,5 L 0,0 z"
         transform="matrix(-0.8,0,0,-0.8,-10,0)"
         id="path4131"
         style="fill-rule:evenodd;stroke:#000000;stroke-width:1pt;marker-start:none" />
    </marker>
    <marker
       refX="0"
       refY="0"
       orient="auto"
       id="Arrow2Lend"
       style="overflow:visible">
      <path
         d="M 8.7185878,4.0337352 L -2.2072895,0.016013256 L 8.7185884,-4.0017078 C 6.97309,-1.6296469 6.9831476,1.6157441 8.7185878,4.0337352 z"
         transform="matrix(-1.1,0,0,-1.1,-1.1,0)"
         id="path4113"
         style="font-size:12px;fill-rule:evenodd;stroke-width:0.625;stroke-linejoin:round" />
    </marker>
    <clipPath
       id="boundary">
      <circle
         cx="0"
         cy="0"
         r="298"
         id="circle2011" />
    </clipPath>
    <radialGradient
       cx="1388.3325"
       cy="662.04425"
       r="180.31859"
       fx="1388.3325"
       fy="662.04425"
       id="radialGradient5718"
       xlink:href="#linearGradient5710"
       gradientUnits="userSpaceOnUse" />
  </defs>
  <g
     transform="translate(-614.2857,287.7142)"
     id="g2048"
     style="fill:#666666">
    <g
       transform="matrix(0.111111,0,0,-0.111111,-370.5556,415)"
       id="g2050">
      <use
         id="use2052"
         x="0"
         y="0"
         width="900"
         height="900"
         xlink:href="#W" />
      <use
         id="use2054"
         x="1440"
         y="0"
         width="900"
         height="900"
         xlink:href="#I" />
      <use
         id="use2056"
         x="1860"
         y="0"
         width="900"
         height="900"
         xlink:href="#K" />
      <use
         id="use2058"
         x="2680"
         y="0"
         width="900"
         height="900"
         xlink:href="#I" />
      <use
         id="use2060"
         x="3100"
         y="0"
         width="900"
         height="900"
         xlink:href="#M" />
      <use
         id="use2062"
         x="4080"
         y="0"
         width="900"
         height="900"
         xlink:href="#E" />
      <use
         id="use2064"
         x="4780"
         y="0"
         width="900"
         height="900"
         xlink:href="#D" />
      <use
         id="use2066"
         x="5610"
         y="0"
         width="900"
         height="900"
         xlink:href="#I" />
      <use
         id="use2068"
         x="5890"
         y="0"
         width="900"
         height="900"
         xlink:href="#A" />
    </g>
    <g
       transform="matrix(0.111111,0,0,-0.111111,-325.5556,515)"
       id="g2070">
      <use
         id="use2072"
         x="0"
         y="0"
         width="900"
         height="900"
         xlink:href="#C" />
      <use
         id="use2074"
         x="768"
         y="0"
         width="900"
         height="900"
         xlink:href="#O" />
      <use
         id="use2076"
         x="1686"
         y="0"
         width="900"
         height="900"
         xlink:href="#M" />
      <use
         id="use2078"
         x="2666"
         y="0"
         width="900"
         height="900"
         xlink:href="#M" />
      <use
         id="use2080"
         x="3574"
         y="0"
         width="900"
         height="900"
         xlink:href="#O" />
      <use
         id="use2082"
         x="4492"
         y="0"
         width="900"
         height="900"
         xlink:href="#N" />
      <use
         id="use2084"
         x="5357"
         y="0"
         width="900"
         height="900"
         xlink:href="#S" />
    </g>
  </g>
  <path
     d="M 1567.6511,662.04425 A 179.31859,179.31859 0 1 1 1209.0139,662.04425 A 179.31859,179.31859 0 1 1 1567.6511,662.04425 z"
     transform="matrix(0.6747767,0,0,0.6747767,-482.15043,281.56596)"
     id="path5720"
     style="opacity:1;fill:#0092de;fill-opacity:1;fill-rule:nonzero;stroke:none;stroke-width:2;stroke-linejoin:miter;stroke-miterlimit:4;stroke-dasharray:none;stroke-dashoffset:0;stroke-opacity:1" />
  <path
     d="M 401.52235,619.70737 C 388.35173,626.23357 376.86698,634.90247 367.2822,645.08667 C 372.05697,645.17867 376.85937,644.96469 381.66504,644.42438 C 387.2131,635.48331 393.85931,627.17007 401.52235,619.70737 z M 412.87504,614.78182 C 423.10362,614.2993 433.26946,614.99619 443.17187,616.85992 C 446.58888,613.79692 449.77923,610.52146 452.75607,607.09648 C 439.43108,607.36828 425.97213,609.86313 412.87504,614.78182 z M 406.593,625.888 C 401.30825,631.0866 396.55559,636.72286 392.34709,642.70277 C 398.73236,641.33756 405.0822,639.36951 411.3269,636.80361 L 406.593,625.888 z M 414.00211,622.70108 L 418.68599,633.50103 C 424.4339,630.64204 429.82154,627.31791 434.84527,623.63238 C 427.98263,622.73922 421.00864,622.41184 414.00211,622.70108 z M 462.9929,607.32616 C 459.81991,611.42133 456.36971,615.33641 452.64953,619.01287 C 470.89289,623.86814 487.96353,632.64216 502.53923,644.79434 C 507.94696,638.24888 512.83674,631.33277 517.19836,624.11832 C 500.785,614.36489 482.17946,608.57003 462.9929,607.32616 z M 360.56181,652.83853 C 348.63349,667.89591 340.47248,685.56754 336.69836,704.29845 C 345.06285,705.9154 353.56918,706.93314 362.14757,707.29822 C 362.99817,688.28934 368.0797,669.7231 376.82129,652.95584 C 371.37835,653.29455 365.94148,653.24668 360.56181,652.83853 z M 445.51301,625.48878 C 438.41218,631.44046 430.51758,636.62022 421.88515,640.87824 L 443.49923,690.71537 C 464.45241,680.78082 482.53752,667.10742 497.28734,650.86487 C 482.29901,638.37035 464.48758,629.68784 445.51301,625.48878 z M 386.43731,651.94371 C 376.68398,668.8244 371.03649,687.87365 370.15357,707.45152 C 392.197,707.36025 414.57518,703.02946 436.13028,693.99488 L 414.53642,644.20407 C 405.32256,648.00327 395.89459,650.56896 386.43731,651.94371 z M 523.98196,628.48434 C 519.39989,636.04711 514.24855,643.28863 508.56923,650.14671 C 520.78062,661.70426 530.89447,675.84209 537.9889,692.20084 C 539.45486,695.58081 540.77111,698.98717 541.92564,702.41803 C 550.07975,694.02443 557.56843,685.10153 564.35196,675.70692 C 554.9405,656.06966 540.84077,640.08385 523.98196,628.48434 z M 335.36309,712.24189 C 332.66396,732.4991 335.06344,753.67284 343.32117,773.85635 C 354.82121,775.1194 366.45838,775.575 378.14178,775.15335 C 376.14101,771.54177 374.29793,767.8108 372.62206,763.94659 C 365.75778,748.11892 362.34634,731.64827 362.04723,715.36525 C 353.05452,714.99077 344.13372,713.93095 335.36309,712.24189 z M 503.28417,656.20402 C 487.78126,673.31066 468.75974,687.69822 446.7086,698.11575 L 470.49885,752.97129 C 495.08697,741.5976 516.86926,726.57869 535.49371,708.80816 C 534.14019,704.30164 532.5077,699.83291 530.59016,695.41074 C 523.98409,680.1785 514.60216,667.00046 503.28417,656.20402 z M 370.04327,715.49572 C 370.37563,730.65791 373.60087,745.99588 379.99781,760.74661 C 382.10208,765.59818 384.49106,770.23605 387.13106,774.6604 C 412.65287,772.77481 438.28612,766.76591 463.13009,756.25076 L 439.33982,701.3952 C 416.71451,710.89207 393.20143,715.42993 370.04327,715.49572 z M 568.03287,684.1942 C 560.89192,693.7028 553.05259,702.74085 544.52888,711.20806 C 550.09875,732.74381 549.79182,754.82518 544.42718,775.52244 C 554.91397,767.93324 564.82182,759.74455 574.09434,751.00059 C 578.31228,729.26733 576.60291,706.17903 568.03287,684.1942 z M 347.16081,782.32973 C 357.69958,803.38577 373.70278,820.12686 392.66925,831.58203 C 405.15385,830.58184 417.64716,828.78859 430.10136,826.16803 C 411.31445,816.16189 394.92876,801.52138 382.86212,782.99724 C 370.89605,783.6404 358.96529,783.40255 347.16081,782.32973 z M 537.7994,717.67222 C 519.23732,734.76696 497.77832,749.28662 473.71844,760.3947 L 493.20607,805.32896 C 507.54745,798.77663 521.13859,791.2651 533.91554,782.8308 C 533.91949,782.81955 533.92461,782.80896 533.92857,782.79766 C 541.02559,762.20757 542.6257,739.71604 537.7994,717.67222 z M 392.10913,782.3377 C 405.02648,800.65463 422.57589,814.60869 442.42608,823.29389 C 457.03627,819.56569 471.53175,814.66571 485.82719,808.58545 L 466.33984,763.65124 C 442.0741,773.92929 417.06055,780.05472 392.10913,782.3377 z M 570.44634,765.14056 C 561.02384,773.33663 551.04672,781.01658 540.51422,788.10109 C 533.82513,806.17325 523.1148,822.78162 509.00606,836.50318 C 539.2868,821.52954 560.72626,795.30546 570.44634,765.14056 z M 405.51962,838.34419 C 433.79576,851.10237 466.85633,853.00712 497.81522,841.35842 C 478.50203,842.27793 459.41338,838.90005 441.90038,831.7101 C 429.81689,834.68279 417.66997,836.87949 405.51962,838.34419 z M 528.62075,795.70688 C 518.35164,801.94689 507.61416,807.64699 496.42553,812.75253 L 504.0081,830.23605 C 514.2593,820.14567 522.54242,808.4303 528.62075,795.70688 z M 455.33737,828.10612 C 468.55764,832.19549 482.51591,834.05355 496.61902,833.4692 L 489.0366,815.9857 C 477.9097,820.72067 466.66827,824.76673 455.33737,828.10612 z"
     id="path2862"
     style="fill:#990000;fill-opacity:1;stroke:none;stroke-width:2;stroke-linecap:round;stroke-linejoin:round;stroke-miterlimit:4;stroke-dasharray:none;stroke-opacity:1" />
  <path
     d="M 1567.6511,662.04425 A 179.31859,179.31859 0 1 1 1209.0139,662.04425 A 179.31859,179.31859 0 1 1 1567.6511,662.04425 z"
     transform="matrix(0.8861169,0,0,0.8861169,-774.12799,139.94508)"
     id="path5700"
     style="opacity:1;fill:url(#radialGradient5718);fill-opacity:1;fill-rule:nonzero;stroke:none;stroke-width:2;stroke-linejoin:miter;stroke-miterlimit:4;stroke-dasharray:none;stroke-dashoffset:0;stroke-opacity:1" />
  <path
     d="M 867.8125,571.0768 L 780.0625,621.7018 C 792.9694,658.19052 800,697.43524 800,738.3268 C 800,914.54216 669.52928,1060.4049 500,1084.7018 L 500,1185.5768 C 724.90248,1160.6839 899.99998,969.83044 900,738.3268 C 900,679.22688 888.5516,622.79344 867.8125,571.0768 z"
     id="path2970"
     style="opacity:1;fill:#006699;fill-opacity:1;stroke:none;stroke-width:10;stroke-linecap:round;stroke-linejoin:round;stroke-miterlimit:4;stroke-dasharray:none;stroke-opacity:1" />
  <path
     d="M 32.1875,571.0768 C 11.448392,622.79344 0,679.22688 0,738.3268 C 0,969.83044 175.0975,1160.6839 400,1185.5768 L 400,1084.7018 C 230.47074,1060.4049 100,914.54218 100,738.3268 C 100,697.43524 107.03061,658.19052 119.9375,621.7018 L 32.1875,571.0768 z"
     id="path2968"
     style="opacity:1;fill:#006699;fill-opacity:1;stroke:none;stroke-width:10;stroke-linecap:round;stroke-linejoin:round;stroke-miterlimit:4;stroke-dasharray:none;stroke-opacity:1" />
  <path
     d="M 458.19395,3.09375 L 334.50645,239.09375 L 335.00645,239.09375 C 350.22919,214.27704 372.75631,194.38191 399.56895,182.4375 C 399.62694,185.33456 399.74719,188.26811 399.9127,191.25 C 402.31193,234.47483 421.47739,288.2882 471.69395,341.875 C 526.89398,400.77974 590.21544,416.23417 639.5377,443.625 C 673.20922,462.32428 704.80631,484.92679 735.4752,531.78125 L 821.31895,482.21875 C 779.51608,418.38131 732.32582,380.77919 688.1002,356.21875 C 625.35539,321.37378 578.15314,309.20688 544.6627,273.46875 C 507.29398,233.59207 500.96094,207.38771 499.75645,185.6875 C 499.57229,182.36971 499.64133,179.23578 499.8502,176.15625 C 534.11014,186.48245 563.04369,209.19882 581.38145,239.09375 L 581.88145,239.09375 L 458.19395,3.09375 z"
     id="path3941"
     style="fill:#990000;fill-opacity:1;fill-rule:evenodd;stroke:none;stroke-width:100;stroke-linecap:butt;stroke-linejoin:miter;stroke-miterlimit:4;stroke-dasharray:none;stroke-opacity:1" />
  <path
     d="M 455.22876,386.22998 L 405.85376,452.85498 L 435.85376,452.85498 L 435.85376,560.22998 C 442.16036,559.63075 448.60536,559.29248 455.22876,559.29248 C 461.85285,559.29248 468.29844,559.62202 474.60376,560.22998 L 474.60376,452.85498 L 504.60376,452.85498 L 455.22876,386.22998 z M 214.10376,486.13623 L 226.32251,568.16748 L 247.54126,546.94873 L 313.69751,613.10498 C 323.71657,605.14889 334.4599,597.51001 346.01001,590.60498 L 274.91626,519.54248 L 296.16626,498.32373 L 214.10376,486.13623 z M 696.35376,486.13623 L 614.32251,498.32373 L 635.54126,519.54248 L 564.19751,590.88623 C 575.70421,597.83411 586.40582,605.53225 596.38501,613.51123 L 662.94751,546.94873 L 684.16626,568.16748 L 696.35376,486.13623 z M 596.72876,841.35498 C 586.77041,849.33821 576.08721,857.04593 564.60376,864.01123 L 635.54126,934.97998 L 614.35376,956.16748 L 696.35376,968.38623 L 684.19751,886.32373 L 662.94751,907.57373 L 596.72876,841.35498 z M 313.32251,841.76123 L 247.54126,907.57373 L 226.29126,886.32373 L 214.10376,968.38623 L 296.13501,956.16748 L 274.91626,934.97998 L 345.57251,864.29248 C 334.04504,857.37079 323.32119,849.72288 313.32251,841.76123 z M 435.85376,894.91748 L 435.85376,1001.605 L 405.85376,1001.605 L 455.22876,1068.23 L 504.60376,1001.605 L 474.60376,1001.605 L 474.60376,894.91748 C 468.30572,895.52456 461.84486,895.85498 455.22876,895.85498 C 448.60536,895.85498 442.16036,895.51671 435.85376,894.91748 z M 114.22875,727.22999 L 180.85375,776.60499 L 180.85375,746.60499 L 288.22875,746.60499 C 287.62952,740.29839 287.29125,733.85339 287.29125,727.22999 C 287.29125,720.6059 287.62079,714.16031 288.22875,707.85499 L 180.85375,707.85499 L 180.85375,677.85499 L 114.22875,727.22999 z M 214.135,968.35499 L 296.16625,956.13624 L 274.9475,934.91749 L 341.10375,868.76124 C 333.14766,858.74218 325.50878,847.99885 318.60375,836.44874 L 247.54125,907.54249 L 226.3225,886.29249 L 214.135,968.35499 z M 214.135,486.10499 L 226.3225,568.13624 L 247.54125,546.91749 L 318.885,618.26124 C 325.83288,606.75454 333.53102,596.05293 341.51,586.07374 L 274.9475,519.51124 L 296.16625,498.29249 L 214.135,486.10499 z M 569.35375,585.72999 C 577.33698,595.68834 585.0447,606.37154 592.01,617.85499 L 662.97875,546.91749 L 684.16625,568.10499 L 696.385,486.10499 L 614.3225,498.26124 L 635.5725,519.51124 L 569.35375,585.72999 z M 569.76,869.13624 L 635.5725,934.91749 L 614.3225,956.16749 L 696.385,968.35499 L 684.16625,886.32374 L 662.97875,907.54249 L 592.29125,836.88624 C 585.36956,848.41371 577.72165,859.13756 569.76,869.13624 z M 622.91625,746.60499 L 729.60377,746.60499 L 729.60377,776.60499 L 796.22877,727.22999 L 729.60377,677.85499 L 729.60377,707.85499 L 622.91625,707.85499 C 623.52333,714.15303 623.85375,720.61389 623.85375,727.22999 C 623.85375,733.85339 623.51548,740.29839 622.91625,746.60499 z"
     id="line5177"
     style="fill:#339966;fill-opacity:1;stroke:none;stroke-width:38.75680542;stroke-opacity:1" />
</svg>
